<mxfile host="Electron" agent="Mozilla/5.0 (Macintosh; Intel Mac OS X 10_15_7) AppleWebKit/537.36 (KHTML, like Gecko) draw.io/26.2.15 Chrome/134.0.6998.205 Electron/35.2.1 Safari/537.36" version="26.2.15">
  <diagram name="Page-1" id="tWgzAdI3QQmNZxRvzqAa">
    <mxGraphModel dx="1234" dy="917" grid="1" gridSize="10" guides="1" tooltips="1" connect="1" arrows="1" fold="1" page="1" pageScale="1" pageWidth="1169" pageHeight="827" math="0" shadow="0">
      <root>
        <mxCell id="0" />
        <mxCell id="1" parent="0" />
        <mxCell id="mMkqmVC8cNVeUdY0J543-37" value="Array of RPs from&lt;div&gt;&lt;span style=&quot;font-weight: normal;&quot;&gt;&lt;font face=&quot;Courier New&quot;&gt;bpf_get_stack()&lt;/font&gt;&lt;/span&gt;&lt;/div&gt;" style="swimlane;whiteSpace=wrap;html=1;startSize=40;fontSize=17;" vertex="1" parent="1">
          <mxGeometry x="140" y="20" width="190" height="210" as="geometry" />
        </mxCell>
        <mxCell id="mMkqmVC8cNVeUdY0J543-38" value="&lt;font style=&quot;font-size: 17px;&quot;&gt;0x7A342FF669EB&lt;/font&gt;" style="rounded=0;whiteSpace=wrap;html=1;fillColor=#f5f5f5;fontColor=#333333;strokeColor=#666666;" vertex="1" parent="mMkqmVC8cNVeUdY0J543-37">
          <mxGeometry x="22.5" y="50" width="145" height="30" as="geometry" />
        </mxCell>
        <mxCell id="mMkqmVC8cNVeUdY0J543-53" value="&lt;font style=&quot;font-size: 17px;&quot;&gt;0x7A342FF6692A&lt;/font&gt;" style="rounded=0;whiteSpace=wrap;html=1;fillColor=#f5f5f5;fontColor=#333333;strokeColor=#666666;" vertex="1" parent="mMkqmVC8cNVeUdY0J543-37">
          <mxGeometry x="22.5" y="80" width="145" height="30" as="geometry" />
        </mxCell>
        <mxCell id="mMkqmVC8cNVeUdY0J543-54" value="&lt;font style=&quot;font-size: 17px;&quot;&gt;0x7A342FF669EB&lt;/font&gt;" style="rounded=0;whiteSpace=wrap;html=1;fillColor=#e1d5e7;strokeColor=#9673a6;" vertex="1" parent="mMkqmVC8cNVeUdY0J543-37">
          <mxGeometry x="22.5" y="109" width="145" height="30" as="geometry" />
        </mxCell>
        <mxCell id="mMkqmVC8cNVeUdY0J543-55" value="&lt;font style=&quot;font-size: 17px;&quot;&gt;0x7A342FF669EB&lt;/font&gt;" style="rounded=0;whiteSpace=wrap;html=1;" vertex="1" parent="mMkqmVC8cNVeUdY0J543-37">
          <mxGeometry x="22.5" y="140" width="145" height="30" as="geometry" />
        </mxCell>
        <mxCell id="mMkqmVC8cNVeUdY0J543-56" value="&lt;font style=&quot;font-size: 17px;&quot;&gt;0x7A342FF669EB&lt;/font&gt;" style="rounded=0;whiteSpace=wrap;html=1;" vertex="1" parent="mMkqmVC8cNVeUdY0J543-37">
          <mxGeometry x="22.5" y="170" width="145" height="30" as="geometry" />
        </mxCell>
        <mxCell id="mMkqmVC8cNVeUdY0J543-57" value="" style="shape=flexArrow;endArrow=classic;html=1;rounded=0;fillColor=#fff2cc;strokeColor=#d6b656;" edge="1" parent="1">
          <mxGeometry width="50" height="50" relative="1" as="geometry">
            <mxPoint x="70" y="142.5" as="sourcePoint" />
            <mxPoint x="140" y="142.5" as="targetPoint" />
          </mxGeometry>
        </mxCell>
        <mxCell id="mMkqmVC8cNVeUdY0J543-58" value="libc&lt;font face=&quot;Helvetica&quot;&gt;, skipped&lt;/font&gt;" style="text;html=1;align=center;verticalAlign=middle;whiteSpace=wrap;rounded=0;fontSize=18;fontStyle=2;fontFamily=Courier New;" vertex="1" parent="1">
          <mxGeometry x="550" y="70" width="120" height="30" as="geometry" />
        </mxCell>
        <mxCell id="mMkqmVC8cNVeUdY0J543-60" value="&lt;span style=&quot;font-style: normal;&quot;&gt;libpng&lt;font face=&quot;Helvetica&quot;&gt;,&lt;/font&gt;&lt;/span&gt;&lt;div&gt;&lt;span style=&quot;font-style: normal;&quot;&gt;&lt;font face=&quot;Helvetica&quot;&gt;&amp;nbsp;&lt;b&gt;RP Found&lt;/b&gt;&lt;/font&gt;&lt;/span&gt;&lt;/div&gt;" style="text;html=1;align=center;verticalAlign=middle;whiteSpace=wrap;rounded=0;fontSize=18;fontStyle=2;fontFamily=Courier New;" vertex="1" parent="1">
          <mxGeometry x="540" y="130" width="110" height="51" as="geometry" />
        </mxCell>
        <mxCell id="mMkqmVC8cNVeUdY0J543-68" value="libc&lt;font face=&quot;Helvetica&quot;&gt;, skipped&lt;/font&gt;" style="text;html=1;align=center;verticalAlign=middle;whiteSpace=wrap;rounded=0;fontSize=18;fontStyle=2;fontFamily=Courier New;" vertex="1" parent="1">
          <mxGeometry x="550" y="100" width="120" height="30" as="geometry" />
        </mxCell>
        <mxCell id="mMkqmVC8cNVeUdY0J543-77" style="edgeStyle=orthogonalEdgeStyle;rounded=0;orthogonalLoop=1;jettySize=auto;html=1;exitX=1;exitY=0.5;exitDx=0;exitDy=0;" edge="1" parent="1" source="mMkqmVC8cNVeUdY0J543-71" target="mMkqmVC8cNVeUdY0J543-58">
          <mxGeometry relative="1" as="geometry" />
        </mxCell>
        <mxCell id="mMkqmVC8cNVeUdY0J543-71" value="&lt;font style=&quot;font-size: 17px;&quot;&gt;bpf_find_vma()&lt;/font&gt;" style="rounded=0;whiteSpace=wrap;html=1;fillColor=#f5f5f5;fontColor=#333333;strokeColor=#666666;" vertex="1" parent="1">
          <mxGeometry x="350" y="70" width="145" height="30" as="geometry" />
        </mxCell>
        <mxCell id="mMkqmVC8cNVeUdY0J543-79" style="edgeStyle=orthogonalEdgeStyle;rounded=0;orthogonalLoop=1;jettySize=auto;html=1;exitX=1;exitY=0.5;exitDx=0;exitDy=0;entryX=0;entryY=0.5;entryDx=0;entryDy=0;" edge="1" parent="1" source="mMkqmVC8cNVeUdY0J543-72" target="mMkqmVC8cNVeUdY0J543-68">
          <mxGeometry relative="1" as="geometry" />
        </mxCell>
        <mxCell id="mMkqmVC8cNVeUdY0J543-72" value="&lt;font style=&quot;font-size: 17px;&quot;&gt;bpf_find_vma()&lt;/font&gt;" style="rounded=0;whiteSpace=wrap;html=1;fillColor=#f5f5f5;fontColor=#333333;strokeColor=#666666;" vertex="1" parent="1">
          <mxGeometry x="350" y="100" width="145" height="30" as="geometry" />
        </mxCell>
        <mxCell id="mMkqmVC8cNVeUdY0J543-80" style="edgeStyle=orthogonalEdgeStyle;rounded=0;orthogonalLoop=1;jettySize=auto;html=1;exitX=1;exitY=0.5;exitDx=0;exitDy=0;entryX=0;entryY=0.5;entryDx=0;entryDy=0;" edge="1" parent="1" source="mMkqmVC8cNVeUdY0J543-73" target="mMkqmVC8cNVeUdY0J543-60">
          <mxGeometry relative="1" as="geometry" />
        </mxCell>
        <mxCell id="mMkqmVC8cNVeUdY0J543-73" value="&lt;font style=&quot;font-size: 17px;&quot;&gt;bpf_find_vma()&lt;/font&gt;" style="rounded=0;whiteSpace=wrap;html=1;fillColor=#e1d5e7;strokeColor=#9673a6;" vertex="1" parent="1">
          <mxGeometry x="350" y="129" width="145" height="30" as="geometry" />
        </mxCell>
        <mxCell id="mMkqmVC8cNVeUdY0J543-74" style="edgeStyle=orthogonalEdgeStyle;rounded=0;orthogonalLoop=1;jettySize=auto;html=1;exitX=1;exitY=0.5;exitDx=0;exitDy=0;entryX=0;entryY=0.5;entryDx=0;entryDy=0;" edge="1" parent="1" source="mMkqmVC8cNVeUdY0J543-38" target="mMkqmVC8cNVeUdY0J543-71">
          <mxGeometry relative="1" as="geometry" />
        </mxCell>
        <mxCell id="mMkqmVC8cNVeUdY0J543-75" style="edgeStyle=orthogonalEdgeStyle;rounded=0;orthogonalLoop=1;jettySize=auto;html=1;exitX=1;exitY=0.5;exitDx=0;exitDy=0;entryX=0;entryY=0.5;entryDx=0;entryDy=0;" edge="1" parent="1" source="mMkqmVC8cNVeUdY0J543-53" target="mMkqmVC8cNVeUdY0J543-72">
          <mxGeometry relative="1" as="geometry" />
        </mxCell>
        <mxCell id="mMkqmVC8cNVeUdY0J543-76" style="edgeStyle=orthogonalEdgeStyle;rounded=0;orthogonalLoop=1;jettySize=auto;html=1;exitX=1;exitY=0.5;exitDx=0;exitDy=0;entryX=0;entryY=0.5;entryDx=0;entryDy=0;" edge="1" parent="1" source="mMkqmVC8cNVeUdY0J543-54" target="mMkqmVC8cNVeUdY0J543-73">
          <mxGeometry relative="1" as="geometry" />
        </mxCell>
      </root>
    </mxGraphModel>
  </diagram>
</mxfile>
